<svg xmlns="http://www.w3.org/2000/svg" width="172" height="186" viewBox="0 0 172 186">
  <defs>
    <style>
      .cls-1 {
        fill: #ccd0d2;
      }

      .cls-1, .cls-2 {
        fill-rule: evenodd;
      }

      .cls-2 {
        fill: #fff;
        fill-opacity: 0.1;
        stroke: #ccd0d2;
        stroke-linejoin: round;
        stroke-width: 4px;
      }
    </style>
  </defs>
  <path id="diamond" class="cls-1" d="M128.166,80.369l-13.08-13.083a5.152,5.152,0,0,0-3.641-1.509H65.513a5.15,5.15,0,0,0-3.641,1.509L48.791,80.369a5.144,5.144,0,0,0-.209,7.063l36.045,38.387a5.154,5.154,0,0,0,7.7,0l36.048-38.387A5.15,5.15,0,0,0,128.166,80.369ZM94.193,83.8H82.762l5.715-4.763Zm-3.7-6.437L97.527,71.5l5.2,5.2L96.2,82.125Zm-9.736,4.76-6.52-5.431,5.195-5.2,7.038,5.866Zm14.136,4.252-6.412,32.062L82.065,86.377H94.889Zm2.625,0H110.15L91.2,117.966Zm0.7-2.575,6.339-5.28,5.28,5.28H98.211ZM100.6,70.928h9.045l-4.934,4.111ZM88.477,75.69l-5.715-4.762H94.193Zm-16.231-.651-4.933-4.111h9.045ZM72.4,78.521l6.339,5.28H67.124Zm7.035,7.855,6.317,31.589L66.8,86.377H79.44Zm0.551,26.98L54.655,86.377h9.15Zm33.158-26.98H122.3L96.961,113.36Zm0.322-2.575-6.935-6.936,5.917-4.93L124.316,83.8H113.471ZM64.494,71.93l5.924,4.936L63.483,83.8H52.445Z"/>
  <path id="Shape_2_copy_3" data-name="Shape 2 copy 3" class="cls-2" d="M65.568,175.072q-20.232-12.153-40.872-23.6T4.464,116.431q0.409-23.6,0-47.194T24.7,34.194q20.64-11.445,40.872-23.6t40.464,0q20.232,12.153,40.872,23.6t20.232,35.043q-0.41,23.6,0,47.194T146.9,151.474q-20.64,11.445-40.872,23.6T65.568,175.072Z"/>
</svg>
