<svg xmlns="http://www.w3.org/2000/svg" width="172" height="186" viewBox="0 0 172 186">
  <defs>
  </defs>
  <path id="Shape_2_copy_3" data-name="Shape 2 copy 3" class="cls-1" d="M65.568,175.072q-20.232-12.153-40.872-23.6T4.464,116.431q0.409-23.6,0-47.194T24.7,34.194Q45.337,22.749,65.568,10.6t40.464,0q20.231,12.153,40.872,23.6t20.232,35.043q-0.41,23.6,0,47.194T146.9,151.474q-20.641,11.445-40.872,23.6T65.568,175.072Z"/>
  <path id="heart" class="cls-2" d="M116.825,70.565a21.182,21.182,0,0,0-29.011-.633,21.18,21.18,0,0,0-29.01.633,20.674,20.674,0,0,0,0,29.466L83.11,124.068a6.7,6.7,0,0,0,9.409,0l24.306-24.037A20.675,20.675,0,0,0,116.825,70.565Zm-3.137,26.364L89.381,120.966a2.233,2.233,0,0,1-3.133,0L61.942,96.929a16.337,16.337,0,0,1,0-23.264,16.707,16.707,0,0,1,22.891-.487l2.981,2.679L90.8,73.178a16.708,16.708,0,0,1,22.892.487A16.338,16.338,0,0,1,113.688,96.929ZM72.974,75.477s0,0-.009,0a9.34,9.34,0,0,0-9.338,9.334h0a1.1,1.1,0,0,0,2.2,0v0a7.142,7.142,0,0,1,7.145-7.137h0A1.1,1.1,0,1,0,72.974,75.477Z"/>
</svg>
