<svg xmlns="http://www.w3.org/2000/svg" width="172" height="186" viewBox="0 0 172 186">
  <defs>
  </defs>
  <path id="Shape_2_copy_3" data-name="Shape 2 copy 3" class="cls-1" d="M65.568,175.072q-20.232-12.153-40.872-23.6T4.464,116.431q0.409-23.6,0-47.194T24.7,34.194q20.64-11.445,40.872-23.6t40.464,0q20.232,12.153,40.872,23.6t20.232,35.043q-0.41,23.6,0,47.194T146.9,151.474q-20.64,11.445-40.872,23.6T65.568,175.072Z"/>
  <path id="cup" class="cls-2" d="M110.74,74.611l-2.314-6.962a3.809,3.809,0,0,0-3.614-2.6H70.524a3.81,3.81,0,0,0-3.614,2.6l-2.333,6.967A3.788,3.788,0,0,0,61,78.378v5.715A3.809,3.809,0,0,0,64.81,87.9h1.97a3.571,3.571,0,0,0-.041.42l3.81,34.288A3.808,3.808,0,0,0,74.334,126H101a3.809,3.809,0,0,0,3.786-3.389L108.6,88.322a3.529,3.529,0,0,0-.041-0.42h1.97a3.81,3.81,0,0,0,3.81-3.809V78.378A3.789,3.789,0,0,0,110.74,74.611ZM70.524,68.854h34.288l1.905,5.715h-38.1Zm3.81,53.337L73.7,116.475h27.937L101,122.19H74.334Zm27.515-7.62H73.488L71.371,95.522h32.6Zm2.329-20.953H71.159L70.524,87.9h34.288Zm6.348-9.524H64.81V78.378h45.716v5.715Z"/>
</svg>
