<svg xmlns="http://www.w3.org/2000/svg"  viewBox="0 0 172 186">
  <path id="Shape_2_copy_3" data-name="Shape 2 copy 3" class="cls-1" d="M65.568,175.072q-20.232-12.153-40.872-23.6T4.464,116.431q0.409-23.6,0-47.194T24.7,34.194q20.64-11.445,40.872-23.6t40.464,0q20.231,12.153,40.872,23.6t20.232,35.043q-0.41,23.6,0,47.194T146.9,151.474q-20.64,11.445-40.872,23.6T65.568,175.072Z"/>
  <path id="phone" class="cls-2" d="M103.345,64.1L71.9,64.1A5.9,5.9,0,0,0,66,70v51.1a5.9,5.9,0,0,0,5.9,5.9l31.448,0a5.9,5.9,0,0,0,5.9-5.9V70A5.9,5.9,0,0,0,103.345,64.1Zm1.965,57a1.966,1.966,0,0,1-1.965,1.965l-31.448,0a1.967,1.967,0,0,1-1.966-1.965v-3.939l35.379,0V121.1Zm0-5.905-35.379,0V75.9l35.379,0v39.3Zm0-41.268-35.379,0V70A1.966,1.966,0,0,1,71.9,68.035l31.448,0A1.967,1.967,0,0,1,105.31,70v3.931ZM91.552,70.981a0.982,0.982,0,0,1-.983.983h-5.9a0.982,0.982,0,0,1-.983-0.983h0A0.982,0.982,0,0,1,84.672,70h5.9a0.982,0.982,0,0,1,.983.982h0Zm-1.965,49.13a0.983,0.983,0,0,1-.983.984H86.638a0.983,0.983,0,0,1-.983-0.984h0a0.982,0.982,0,0,1,.983-0.982H88.6a0.982,0.982,0,0,1,.983.982h0Z"/>
</svg>
