<svg id="icon" xmlns="http://www.w3.org/2000/svg" width="167" height="181" viewBox="0 0 167 181">
  <defs>
    <style>
      .cls-1, .cls-2 {
        fill: #fff;
        fill-rule: evenodd;
      }

      .cls-1 {
        fill-opacity: 0.1;
        stroke: #fff;
        stroke-linejoin: round;
        stroke-width: 4px;
      }
    </style>
  </defs>
  <path class="cls-1" d="M63.233,172.136q-20.121-12.087-40.648-23.469T2.464,113.817q0.406-23.467,0-46.935t20.121-34.85Q43.112,20.649,63.233,8.563t40.241,0Q123.6,20.649,144.122,32.031t20.121,34.85q-0.406,23.467,0,46.935t-20.121,34.85q-20.528,11.383-40.648,23.469T63.233,172.136Z"/>
  <path id="study" class="cls-2" d="M115.539,73.738a6.309,6.309,0,0,0-4.912-6.177L83.132,61.216a6.4,6.4,0,0,0-2.824.007L52.845,67.561a6.34,6.34,0,0,0,0,12.355l5.651,1.3V99.092c0,5.608,6.418,10.564,23.241,10.564s23.24-4.956,23.24-10.564V81.22l5.649-1.3A6.308,6.308,0,0,0,115.539,73.738ZM100.75,99.092c0,2.336-6.339,6.338-19.016,6.338s-19.015-4-19.015-6.338V82.2L80.337,86.26a6.411,6.411,0,0,0,1.4.155,6.5,6.5,0,0,0,1.426-.161L100.75,82.2v16.9ZM82.21,82.136a2.113,2.113,0,0,1-.951,0L53.793,75.8a2.114,2.114,0,0,1,0-4.119l27.466-6.338a2.136,2.136,0,0,1,.951,0l27.466,6.338a2.113,2.113,0,0,1,0,4.119ZM109.2,84.3v19.015a2.113,2.113,0,0,0,4.226,0V84.3A2.113,2.113,0,0,0,109.2,84.3Zm2.113,23.241c-2.334,0-4.226,6.118-4.226,8.451a4.226,4.226,0,1,0,8.451,0C115.539,113.661,113.647,107.543,111.314,107.543Z"/>
</svg>
